<mxfile host="app.diagrams.net" modified="2023-11-24T09:14:06.305Z" agent="Mozilla/5.0 (Windows NT 10.0; Win64; x64) AppleWebKit/537.36 (KHTML, like Gecko) Chrome/121.0.0.0 Safari/537.36 Edg/121.0.0.0" etag="Zb0vggk-35jHE1vCJzYx" version="21.6.9" type="device">
  <diagram name="Seite-1" id="wUEx7ndTb_bHJJqqPWa8">
    <mxGraphModel dx="1258" dy="806" grid="1" gridSize="10" guides="1" tooltips="1" connect="1" arrows="1" fold="1" page="1" pageScale="1" pageWidth="827" pageHeight="1169" math="0" shadow="0">
      <root>
        <mxCell id="0" />
        <mxCell id="1" parent="0" />
        <mxCell id="tBT3JFBlceWDcz8bJR0U-2" value="Python Script" style="rounded=0;whiteSpace=wrap;html=1;verticalAlign=top;" parent="1" vertex="1">
          <mxGeometry x="160" y="190" width="770" height="640" as="geometry" />
        </mxCell>
        <mxCell id="ftNbUtZdGq8rcmo6kjhv-8" value="Haystack Framework" style="rounded=0;whiteSpace=wrap;html=1;verticalAlign=top;dashed=1;" vertex="1" parent="1">
          <mxGeometry x="337" y="230" width="553" height="540" as="geometry" />
        </mxCell>
        <mxCell id="tBT3JFBlceWDcz8bJR0U-1" value="User" style="shape=umlActor;verticalLabelPosition=bottom;verticalAlign=top;html=1;outlineConnect=0;" parent="1" vertex="1">
          <mxGeometry x="70" y="395" width="30" height="60" as="geometry" />
        </mxCell>
        <mxCell id="tBT3JFBlceWDcz8bJR0U-3" value="Azure OpenAI Service" style="rounded=0;whiteSpace=wrap;html=1;verticalAlign=top;" parent="1" vertex="1">
          <mxGeometry x="1028" y="190" width="150" height="640" as="geometry" />
        </mxCell>
        <mxCell id="tBT3JFBlceWDcz8bJR0U-4" value="" style="shape=image;verticalLabelPosition=bottom;labelBackgroundColor=default;verticalAlign=top;aspect=fixed;imageAspect=0;image=https://swimburger.net/media/ppnn3pcl/azure.png;" parent="1" vertex="1">
          <mxGeometry x="1073" y="120" width="60" height="60" as="geometry" />
        </mxCell>
        <mxCell id="tBT3JFBlceWDcz8bJR0U-8" style="edgeStyle=orthogonalEdgeStyle;rounded=0;orthogonalLoop=1;jettySize=auto;html=1;entryX=0;entryY=0.5;entryDx=0;entryDy=0;startArrow=classic;startFill=1;" parent="1" source="tBT3JFBlceWDcz8bJR0U-5" target="ftNbUtZdGq8rcmo6kjhv-9" edge="1">
          <mxGeometry relative="1" as="geometry">
            <mxPoint x="417" y="425" as="targetPoint" />
          </mxGeometry>
        </mxCell>
        <mxCell id="tBT3JFBlceWDcz8bJR0U-5" value="Gradio" style="rounded=0;whiteSpace=wrap;html=1;" parent="1" vertex="1">
          <mxGeometry x="219" y="395" width="90" height="60" as="geometry" />
        </mxCell>
        <mxCell id="tBT3JFBlceWDcz8bJR0U-7" value="HTTP" style="edgeStyle=orthogonalEdgeStyle;rounded=0;orthogonalLoop=1;jettySize=auto;html=1;startArrow=classic;startFill=1;" parent="1" source="tBT3JFBlceWDcz8bJR0U-1" target="tBT3JFBlceWDcz8bJR0U-5" edge="1">
          <mxGeometry relative="1" as="geometry" />
        </mxCell>
        <mxCell id="zQcZ2AXFS6AF1ZsvGwD_-1" value="GPT-3.5-Turbo" style="rounded=0;whiteSpace=wrap;html=1;" parent="1" vertex="1">
          <mxGeometry x="1058" y="650" width="90" height="60" as="geometry" />
        </mxCell>
        <mxCell id="ftNbUtZdGq8rcmo6kjhv-12" style="edgeStyle=orthogonalEdgeStyle;rounded=0;orthogonalLoop=1;jettySize=auto;html=1;entryX=0.5;entryY=0;entryDx=0;entryDy=0;strokeColor=#B0B0B0;" edge="1" parent="1" source="zQcZ2AXFS6AF1ZsvGwD_-3" target="ftNbUtZdGq8rcmo6kjhv-10">
          <mxGeometry relative="1" as="geometry" />
        </mxCell>
        <mxCell id="ftNbUtZdGq8rcmo6kjhv-13" style="edgeStyle=orthogonalEdgeStyle;rounded=0;orthogonalLoop=1;jettySize=auto;html=1;entryX=0.5;entryY=0;entryDx=0;entryDy=0;strokeColor=#B0B0B0;" edge="1" parent="1" source="zQcZ2AXFS6AF1ZsvGwD_-3" target="ftNbUtZdGq8rcmo6kjhv-11">
          <mxGeometry relative="1" as="geometry" />
        </mxCell>
        <mxCell id="zQcZ2AXFS6AF1ZsvGwD_-3" value="InMemory&lt;br&gt;DocumentStore" style="rounded=0;whiteSpace=wrap;html=1;fontColor=#B0B0B0;strokeColor=#B0B0B0;" parent="1" vertex="1">
          <mxGeometry x="710" y="270" width="100" height="60" as="geometry" />
        </mxCell>
        <mxCell id="ftNbUtZdGq8rcmo6kjhv-2" value="&lt;font color=&quot;#b0b0b0&quot;&gt;Startup&lt;/font&gt;" style="edgeStyle=orthogonalEdgeStyle;rounded=0;orthogonalLoop=1;jettySize=auto;html=1;entryX=0;entryY=0.5;entryDx=0;entryDy=0;strokeColor=#B0B0B0;" edge="1" parent="1" source="zQcZ2AXFS6AF1ZsvGwD_-7" target="ftNbUtZdGq8rcmo6kjhv-1">
          <mxGeometry relative="1" as="geometry" />
        </mxCell>
        <mxCell id="zQcZ2AXFS6AF1ZsvGwD_-7" value="PDF file" style="shape=note;whiteSpace=wrap;html=1;backgroundOutline=1;darkOpacity=0.05;" parent="1" vertex="1">
          <mxGeometry x="60" y="260" width="75" height="80" as="geometry" />
        </mxCell>
        <mxCell id="ftNbUtZdGq8rcmo6kjhv-6" style="edgeStyle=orthogonalEdgeStyle;rounded=0;orthogonalLoop=1;jettySize=auto;html=1;entryX=0;entryY=0.5;entryDx=0;entryDy=0;strokeColor=#B0B0B0;" edge="1" parent="1" source="ftNbUtZdGq8rcmo6kjhv-1" target="ftNbUtZdGq8rcmo6kjhv-4">
          <mxGeometry relative="1" as="geometry" />
        </mxCell>
        <mxCell id="ftNbUtZdGq8rcmo6kjhv-1" value="&lt;font color=&quot;#b0b0b0&quot;&gt;PDFToTextConverter&lt;/font&gt;" style="rounded=0;whiteSpace=wrap;html=1;strokeColor=#B0B0B0;" vertex="1" parent="1">
          <mxGeometry x="385" y="270" width="140" height="60" as="geometry" />
        </mxCell>
        <mxCell id="ftNbUtZdGq8rcmo6kjhv-7" style="edgeStyle=orthogonalEdgeStyle;rounded=0;orthogonalLoop=1;jettySize=auto;html=1;entryX=0;entryY=0.5;entryDx=0;entryDy=0;strokeColor=#B0B0B0;" edge="1" parent="1" source="ftNbUtZdGq8rcmo6kjhv-4" target="zQcZ2AXFS6AF1ZsvGwD_-3">
          <mxGeometry relative="1" as="geometry" />
        </mxCell>
        <mxCell id="ftNbUtZdGq8rcmo6kjhv-4" value="&lt;font color=&quot;#b0b0b0&quot;&gt;Preprocessor&lt;/font&gt;" style="rounded=0;whiteSpace=wrap;html=1;strokeColor=#B0B0B0;" vertex="1" parent="1">
          <mxGeometry x="547" y="270" width="140" height="60" as="geometry" />
        </mxCell>
        <mxCell id="ftNbUtZdGq8rcmo6kjhv-24" style="edgeStyle=orthogonalEdgeStyle;rounded=0;orthogonalLoop=1;jettySize=auto;html=1;entryX=0.25;entryY=0;entryDx=0;entryDy=0;" edge="1" parent="1" source="ftNbUtZdGq8rcmo6kjhv-9" target="ftNbUtZdGq8rcmo6kjhv-10">
          <mxGeometry relative="1" as="geometry">
            <Array as="points">
              <mxPoint x="550" y="425" />
              <mxPoint x="550" y="375" />
              <mxPoint x="646" y="375" />
            </Array>
          </mxGeometry>
        </mxCell>
        <mxCell id="ftNbUtZdGq8rcmo6kjhv-25" style="edgeStyle=orthogonalEdgeStyle;rounded=0;orthogonalLoop=1;jettySize=auto;html=1;entryX=0.25;entryY=0;entryDx=0;entryDy=0;" edge="1" parent="1" source="ftNbUtZdGq8rcmo6kjhv-9" target="ftNbUtZdGq8rcmo6kjhv-11">
          <mxGeometry relative="1" as="geometry">
            <Array as="points">
              <mxPoint x="550" y="425" />
              <mxPoint x="550" y="375" />
              <mxPoint x="794" y="375" />
            </Array>
          </mxGeometry>
        </mxCell>
        <mxCell id="ftNbUtZdGq8rcmo6kjhv-9" value="Pipeline" style="rounded=0;whiteSpace=wrap;html=1;" vertex="1" parent="1">
          <mxGeometry x="385" y="395" width="100" height="60" as="geometry" />
        </mxCell>
        <mxCell id="ftNbUtZdGq8rcmo6kjhv-16" style="edgeStyle=orthogonalEdgeStyle;rounded=0;orthogonalLoop=1;jettySize=auto;html=1;entryX=0.5;entryY=0;entryDx=0;entryDy=0;" edge="1" parent="1" source="ftNbUtZdGq8rcmo6kjhv-10" target="ftNbUtZdGq8rcmo6kjhv-14">
          <mxGeometry relative="1" as="geometry" />
        </mxCell>
        <mxCell id="ftNbUtZdGq8rcmo6kjhv-10" value="SparseRetriever" style="rounded=0;whiteSpace=wrap;html=1;" vertex="1" parent="1">
          <mxGeometry x="621" y="395" width="100" height="60" as="geometry" />
        </mxCell>
        <mxCell id="ftNbUtZdGq8rcmo6kjhv-18" style="edgeStyle=orthogonalEdgeStyle;rounded=0;orthogonalLoop=1;jettySize=auto;html=1;entryX=0.5;entryY=0;entryDx=0;entryDy=0;" edge="1" parent="1" source="ftNbUtZdGq8rcmo6kjhv-11" target="ftNbUtZdGq8rcmo6kjhv-14">
          <mxGeometry relative="1" as="geometry" />
        </mxCell>
        <mxCell id="ftNbUtZdGq8rcmo6kjhv-11" value="DenseRetriever" style="rounded=0;whiteSpace=wrap;html=1;" vertex="1" parent="1">
          <mxGeometry x="769" y="395" width="100" height="60" as="geometry" />
        </mxCell>
        <mxCell id="ftNbUtZdGq8rcmo6kjhv-20" style="edgeStyle=orthogonalEdgeStyle;rounded=0;orthogonalLoop=1;jettySize=auto;html=1;entryX=0.5;entryY=0;entryDx=0;entryDy=0;" edge="1" parent="1" source="ftNbUtZdGq8rcmo6kjhv-14" target="ftNbUtZdGq8rcmo6kjhv-15">
          <mxGeometry relative="1" as="geometry" />
        </mxCell>
        <mxCell id="ftNbUtZdGq8rcmo6kjhv-14" value="JoinDocuments" style="rounded=0;whiteSpace=wrap;html=1;" vertex="1" parent="1">
          <mxGeometry x="700" y="495" width="100" height="60" as="geometry" />
        </mxCell>
        <mxCell id="ftNbUtZdGq8rcmo6kjhv-21" value="" style="edgeStyle=orthogonalEdgeStyle;rounded=0;orthogonalLoop=1;jettySize=auto;html=1;" edge="1" parent="1" source="ftNbUtZdGq8rcmo6kjhv-15" target="ftNbUtZdGq8rcmo6kjhv-19">
          <mxGeometry relative="1" as="geometry" />
        </mxCell>
        <mxCell id="ftNbUtZdGq8rcmo6kjhv-15" value="Reranker" style="rounded=0;whiteSpace=wrap;html=1;" vertex="1" parent="1">
          <mxGeometry x="700" y="570" width="100" height="60" as="geometry" />
        </mxCell>
        <mxCell id="ftNbUtZdGq8rcmo6kjhv-22" value="LLM Prompt" style="edgeStyle=orthogonalEdgeStyle;rounded=0;orthogonalLoop=1;jettySize=auto;html=1;" edge="1" parent="1" source="ftNbUtZdGq8rcmo6kjhv-19" target="zQcZ2AXFS6AF1ZsvGwD_-1">
          <mxGeometry relative="1" as="geometry" />
        </mxCell>
        <mxCell id="ftNbUtZdGq8rcmo6kjhv-23" style="edgeStyle=orthogonalEdgeStyle;rounded=0;orthogonalLoop=1;jettySize=auto;html=1;" edge="1" parent="1" source="ftNbUtZdGq8rcmo6kjhv-19" target="ftNbUtZdGq8rcmo6kjhv-9">
          <mxGeometry relative="1" as="geometry" />
        </mxCell>
        <mxCell id="ftNbUtZdGq8rcmo6kjhv-19" value="Promptnode" style="rounded=0;whiteSpace=wrap;html=1;" vertex="1" parent="1">
          <mxGeometry x="700" y="650" width="100" height="60" as="geometry" />
        </mxCell>
      </root>
    </mxGraphModel>
  </diagram>
</mxfile>
